<?xml version="1.0" encoding="UTF-8" standalone="no"?>
<!-- Created with Inkscape (http://www.inkscape.org/) -->

<svg
   xmlns:dc="http://purl.org/dc/elements/1.1/"
   xmlns:cc="http://creativecommons.org/ns#"
   xmlns:rdf="http://www.w3.org/1999/02/22-rdf-syntax-ns#"
   xmlns:svg="http://www.w3.org/2000/svg"
   xmlns="http://www.w3.org/2000/svg"
   xmlns:sodipodi="http://sodipodi.sourceforge.net/DTD/sodipodi-0.dtd"
   xmlns:inkscape="http://www.inkscape.org/namespaces/inkscape"
   width="300.9689"
   height="160.98984"
   id="svg2"
   version="1.1"
   inkscape:version="0.48.1 "
   sodipodi:docname="haensch-couillaud_aufbau.svg">
  <defs
     id="defs4" />
  <sodipodi:namedview
     id="base"
     pagecolor="#ffffff"
     bordercolor="#666666"
     borderopacity="1.0"
     inkscape:pageopacity="0.0"
     inkscape:pageshadow="2"
     inkscape:zoom="2.0000001"
     inkscape:cx="140.92205"
     inkscape:cy="10.142289"
     inkscape:document-units="px"
     inkscape:current-layer="layer1"
     showgrid="false"
     inkscape:window-width="1280"
     inkscape:window-height="962"
     inkscape:window-x="-8"
     inkscape:window-y="-8"
     inkscape:window-maximized="1"
     fit-margin-top="0"
     fit-margin-left="0"
     fit-margin-right="0"
     fit-margin-bottom="0">
    <inkscape:grid
       type="xygrid"
       id="grid2985"
       empspacing="5"
       visible="true"
       enabled="true"
       snapvisiblegridlinesonly="true" />
  </sodipodi:namedview>
  <metadata
     id="metadata7">
    <rdf:RDF>
      <cc:Work
         rdf:about="">
        <dc:format>image/svg+xml</dc:format>
        <dc:type
           rdf:resource="http://purl.org/dc/dcmitype/StillImage" />
        <dc:title></dc:title>
      </cc:Work>
    </rdf:RDF>
  </metadata>
  <g
     inkscape:label="Ebene 1"
     inkscape:groupmode="layer"
     id="layer1"
     transform="translate(-151.11914,-38.772339)">
    <path
       style="fill:none;stroke:#000000;stroke-width:1;stroke-linecap:butt;stroke-linejoin:miter;stroke-miterlimit:4;stroke-opacity:1;stroke-dasharray:none"
       d="m 441.5462,112.65507 -249.37238,0"
       id="path3811"
       inkscape:connector-curvature="0" />
    <path
       style="fill:none;stroke:#000000;stroke-width:1;stroke-linecap:butt;stroke-linejoin:miter;stroke-miterlimit:4;stroke-opacity:1;stroke-dasharray:none"
       d="M 267.48762,82.529547 439.87256,142.78059"
       id="path3781"
       inkscape:connector-curvature="0" />
    <path
       style="fill:none;stroke:#000000;stroke-width:1;stroke-linecap:butt;stroke-linejoin:miter;stroke-miterlimit:4;stroke-opacity:1;stroke-dasharray:none"
       d="m 439.87256,142.78059 -85.35565,0"
       id="path3783"
       inkscape:connector-curvature="0" />
    <path
       style="opacity:0.7;fill:#006680;stroke:#000000;stroke-width:1;stroke-linecap:butt;stroke-linejoin:miter;stroke-miterlimit:4;stroke-opacity:1;stroke-dasharray:none"
       d="m 342.80143,92.571388 0,66.945602 16.7364,0 c 0,0 -8.3682,-16.7364 -8.3682,-33.4728 0,-16.7364 8.3682,-33.472802 8.3682,-33.472802 z"
       id="path2987"
       inkscape:connector-curvature="0" />
    <path
       style="opacity:0.7;fill:#006680;stroke:#000000;stroke-width:1;stroke-linecap:butt;stroke-linejoin:miter;stroke-miterlimit:4;stroke-opacity:1;stroke-dasharray:none"
       d="m 451.58804,92.571388 0,66.945602 -16.7364,0 c 0,0 8.3682,-16.7364 8.3682,-33.4728 0,-16.7364 -8.3682,-33.472802 -8.3682,-33.472802 z"
       id="path2987-1"
       inkscape:connector-curvature="0" />
    <path
       style="fill:none;stroke:#000000;stroke-width:1;stroke-linecap:butt;stroke-linejoin:miter;stroke-miterlimit:4;stroke-opacity:1;stroke-dasharray:none"
       d="M 354.51691,142.78059 441.5462,112.65507"
       id="path3809"
       inkscape:connector-curvature="0" />
    <path
       style="fill:#000000;fill-opacity:1;stroke:none"
       d="m 312.61126,98.676744 -6.62991,-6.105356 -2.38164,6.256588 z"
       id="path3813-5"
       inkscape:connector-curvature="0" />
    <path
       style="fill:#000000;fill-opacity:1;stroke:none"
       d="m 317.69683,112.65507 8.3682,3.34728 0,-6.69456 z"
       id="path3813-51"
       inkscape:connector-curvature="0" />
    <path
       style="fill:#000000;fill-opacity:1;stroke:none"
       d="m 404.72612,142.78059 8.3682,3.34728 0,-6.69456 z"
       id="path3813-51-9"
       inkscape:connector-curvature="0" />
    <path
       style="fill:#000000;fill-opacity:1;stroke:none"
       d="m 382.9688,132.73875 -8.99753,-0.52481 2.12014,6.34998 z"
       id="path3813-8"
       inkscape:connector-curvature="0" />
    <path
       style="fill:none;stroke:#000000;stroke-width:1;stroke-linecap:butt;stroke-linejoin:miter;stroke-miterlimit:4;stroke-opacity:1;stroke-dasharray:none"
       d="m 237.3621,112.65507 0,38.49372"
       id="path3912"
       inkscape:connector-curvature="0" />
    <path
       style="fill:#000000;fill-opacity:1;stroke:none"
       d="m 237.3621,142.78059 -3.34728,-8.3682 6.69456,0 z"
       id="path3813-2"
       inkscape:connector-curvature="0" />
    <g
       id="g3808">
      <rect
         y="151.1488"
         x="228.99391"
         height="16.736403"
         width="16.736403"
         id="rect3932"
         style="fill:#000000;fill-opacity:1;stroke:none" />
      <path
         inkscape:connector-curvature="0"
         id="path3934"
         d="m 237.36211,167.88519 c -0.0956,0.26221 -0.16897,0.53358 -0.28664,0.78663 -0.0295,0.0633 -0.11666,0.0855 -0.14795,0.14795 -0.0208,0.0415 -0.0208,0.55021 0,0.59173 0.0306,0.0613 0.3811,0.402 0.4438,0.44379 0.0917,0.0613 0.21789,0.07 0.29586,0.14795 0.078,0.078 0.07,0.21789 0.14795,0.29586 0.0348,0.0348 0.11314,-0.0348 0.14795,0 0.0348,0.0348 -0.0348,0.11297 0,0.14795 0.0348,0.0348 0.11314,-0.0348 0.14795,0 0.0348,0.0348 -0.0221,0.10377 0,0.14795 0.0311,0.0624 0.11682,0.0855 0.14795,0.14795 0.0167,0.0331 0,0.55657 0,0.59173 0,0.0358 0.005,0.43903 0,0.44379 -0.0698,0.0698 -0.20765,-0.044 -0.29586,0 -0.0624,0.0311 -0.0986,0.0986 -0.14795,0.14795 -0.0986,0 -0.2023,-0.0311 -0.29585,0 -0.0661,0.0221 -0.0855,0.11665 -0.14795,0.14795 -0.0882,0.044 -0.25175,-0.0882 -0.29587,0 -0.0442,0.0882 0.0698,0.22612 0,0.29585 -0.0698,0.0698 -0.20765,-0.044 -0.29585,0 -0.0442,0.0221 0.0442,0.12585 0,0.14795 -0.83828,0 -0.0494,-0.0986 -0.29586,0.14795 -0.0348,0.0348 -0.11314,-0.0348 -0.14795,0 -0.0151,0.0151 0.0117,0.70277 0,0.73964 -0.0221,0.0661 -0.11666,0.0855 -0.14795,0.14795 -0.0219,0.044 0,0.82536 0,0.88758 0,0.0494 -0.0221,0.10377 0,0.14795 0.0848,0.16959 0.30866,0.20578 0.44379,0.29587 0.0581,0.0387 0.0855,0.11665 0.14795,0.14795 0.0442,0.0221 0.11314,-0.0348 0.14795,0 0.0348,0.0348 -0.0151,0.10109 0,0.14795 0.0348,0.1046 0.11314,0.19126 0.14795,0.29587 0.0151,0.0469 -0.0221,0.10376 0,0.14795 0.0311,0.0624 0.11682,0.0855 0.14795,0.14795 0.044,0.0882 -0.0442,0.20764 0,0.29585 0.0311,0.0624 0.12586,0.0818 0.14795,0.14795 0.0311,0.0935 -0.0547,0.2138 0,0.29586 0.0611,0.0917 0.21789,0.07 0.29587,0.14795 0.0348,0.0348 0,0.0986 0,0.14795 0,0.12402 0.0315,0.67679 0,0.73967 -0.0221,0.044 -0.10377,-0.0221 -0.14795,0 -0.12469,0.0624 -0.17111,0.23347 -0.29587,0.29585 -0.0882,0.0442 -0.20764,-0.044 -0.29586,0 -0.0624,0.0311 -0.0818,0.12585 -0.14795,0.14795 -0.26347,0.0879 -0.4438,-0.1595 -0.4438,0.29586 0,0.49311 0,0.98619 0,1.4793 0,0.0494 0,0.0986 0,0.14795 0,0.0494 -0.0348,0.11297 0,0.14795 0.078,0.078 0.20412,0.0867 0.29586,0.14795 0.11599,0.0773 0.17112,0.23349 0.29585,0.29585 0.0442,0.0221 0.0986,0 0.14795,0 0.0494,0.0986 0.07,0.21789 0.14795,0.29586 0.0348,0.0348 0.11314,-0.0348 0.14795,0 0.0698,0.0698 -0.0882,0.25175 0,0.29587 0.0882,0.044 0.20765,-0.0442 0.29587,0 0.0442,0.0221 -0.0348,0.11297 0,0.14795 0.0348,0.0348 0.11314,-0.0348 0.14795,0 0.0348,0.0348 0.0492,0.14494 0,0.14795 -0.15582,0.01 -0.30201,-0.0797 -0.453,-0.1195"
         style="fill:none;stroke:#000000;stroke-width:1;stroke-linecap:butt;stroke-linejoin:miter;stroke-miterlimit:4;stroke-opacity:1;stroke-dasharray:none" />
    </g>
    <g
       id="g3814">
      <rect
         transform="matrix(0,1,-1,0,0,0)"
         y="-192.1738"
         x="104.28687"
         height="16.736403"
         width="16.736403"
         id="rect3932-5"
         style="fill:#000000;fill-opacity:1;stroke:none" />
      <path
         inkscape:connector-curvature="0"
         id="path3934-6"
         d="m 175.43741,112.65507 c -0.26221,-0.0956 -0.53358,-0.16897 -0.78663,-0.28664 -0.0633,-0.0295 -0.0855,-0.11666 -0.14795,-0.14795 -0.0415,-0.0208 -0.55021,-0.0208 -0.59173,0 -0.0613,0.0306 -0.40199,0.3811 -0.44378,0.4438 -0.0613,0.0917 -0.07,0.21789 -0.14795,0.29586 -0.078,0.078 -0.2179,0.07 -0.29587,0.14795 -0.0348,0.0348 0.0348,0.11314 0,0.14795 -0.0348,0.0348 -0.11297,-0.0348 -0.14795,0 -0.0348,0.0348 0.0348,0.11314 0,0.14795 -0.0348,0.0348 -0.10377,-0.0221 -0.14795,0 -0.0624,0.0311 -0.0855,0.11682 -0.14795,0.14795 -0.0331,0.0167 -0.55657,0 -0.59173,0 -0.0358,0 -0.43903,0.005 -0.44378,0 -0.0698,-0.0698 0.044,-0.20765 0,-0.29586 -0.0311,-0.0624 -0.0986,-0.0986 -0.14795,-0.14795 0,-0.0986 0.0311,-0.2023 0,-0.29585 -0.0221,-0.0661 -0.11666,-0.0855 -0.14795,-0.14795 -0.044,-0.0882 0.0882,-0.25175 0,-0.29587 -0.0882,-0.0442 -0.22613,0.0698 -0.29585,0 -0.0698,-0.0698 0.044,-0.20765 0,-0.29585 -0.0221,-0.0442 -0.12586,0.0442 -0.14795,0 0,-0.83828 0.0986,-0.0494 -0.14795,-0.29586 -0.0348,-0.0348 0.0348,-0.11314 0,-0.14795 -0.0151,-0.0151 -0.70278,0.0117 -0.73965,0 -0.0661,-0.0221 -0.0855,-0.11666 -0.14795,-0.14795 -0.044,-0.0219 -0.82536,0 -0.88758,0 -0.0494,0 -0.10377,-0.0221 -0.14795,0 -0.16959,0.0849 -0.20578,0.30866 -0.29587,0.44379 -0.0387,0.0581 -0.11665,0.0855 -0.14795,0.14795 -0.0221,0.0442 0.0348,0.11314 0,0.14795 -0.0348,0.0348 -0.10109,-0.0151 -0.14795,0 -0.1046,0.0348 -0.19126,0.11314 -0.29586,0.14795 -0.0469,0.0151 -0.10377,-0.0221 -0.14795,0 -0.0624,0.0311 -0.0855,0.11682 -0.14795,0.14795 -0.0882,0.044 -0.20765,-0.0442 -0.29585,0 -0.0624,0.0311 -0.0818,0.12586 -0.14795,0.14795 -0.0936,0.0311 -0.21381,-0.0547 -0.29587,0 -0.0917,0.0611 -0.07,0.21789 -0.14795,0.29587 -0.0348,0.0348 -0.0986,0 -0.14795,0 -0.12402,0 -0.67679,0.0315 -0.73966,0 -0.044,-0.0221 0.0221,-0.10377 0,-0.14795 -0.0624,-0.12469 -0.23348,-0.17111 -0.29585,-0.29587 -0.0442,-0.0882 0.044,-0.20764 0,-0.29586 -0.0311,-0.0624 -0.12586,-0.0818 -0.14795,-0.14795 -0.0879,-0.26347 0.15949,-0.4438 -0.29587,-0.4438 -0.4931,0 -0.98619,0 -1.4793,0 -0.0494,0 -0.0986,0 -0.14795,0 -0.0494,0 -0.11297,-0.0348 -0.14795,0 -0.078,0.078 -0.0867,0.20412 -0.14795,0.29586 -0.0773,0.11599 -0.23349,0.17112 -0.29585,0.29585 -0.0221,0.0442 0,0.0986 0,0.14795 -0.0986,0.0494 -0.21789,0.07 -0.29586,0.14795 -0.0348,0.0348 0.0348,0.11314 0,0.14795 -0.0698,0.0698 -0.25175,-0.0882 -0.29587,0 -0.044,0.0882 0.0442,0.20765 0,0.29587 -0.0221,0.0442 -0.11297,-0.0348 -0.14795,0 -0.0348,0.0348 0.0348,0.11314 0,0.14795 -0.0348,0.0348 -0.14493,0.0492 -0.14795,0 -0.01,-0.15582 0.0797,-0.30201 0.1195,-0.453"
         style="fill:none;stroke:#000000;stroke-width:1;stroke-linecap:butt;stroke-linejoin:miter;stroke-miterlimit:4;stroke-opacity:1;stroke-dasharray:none" />
    </g>
    <rect
       style="fill:#aa0000;fill-opacity:1;stroke:#000000;stroke-width:1;stroke-miterlimit:4;stroke-opacity:1;stroke-dasharray:none;stroke-dashoffset:0"
       id="rect3779"
       width="58.577404"
       height="16.736403"
       x="222.29851"
       y="-22.045824"
       transform="matrix(0.93992179,0.34138985,-0.34138985,0.93992179,0,0)" />
    <g
       id="g4063"
       transform="matrix(2.966967,0,0,2.966967,-421.93337,-162.58865)">
      <g
         transform="matrix(0.11388837,0.21253613,-0.21253613,0.11388837,233.34625,28.000846)"
         id="g3997"
         style="stroke-width:1.24415827;stroke-miterlimit:4;stroke-dasharray:none">
        <path
           style="fill:none;stroke:#000000;stroke-width:1.24415827;stroke-linecap:butt;stroke-linejoin:miter;stroke-miterlimit:4;stroke-opacity:1;stroke-dasharray:none"
           d="m 240,97.362183 c 0,9.999997 10,9.999997 10,9.999997"
           id="path3964"
           inkscape:connector-curvature="0" />
        <path
           style="fill:none;stroke:#000000;stroke-width:1.24415827;stroke-linecap:butt;stroke-linejoin:miter;stroke-miterlimit:4;stroke-opacity:1;stroke-dasharray:none"
           d="m 260,97.362183 c 0,9.999997 -10,9.999997 -10,9.999997"
           id="path3964-1"
           inkscape:connector-curvature="0" />
      </g>
      <path
         inkscape:connector-curvature="0"
         id="path4001"
         d="M 239.59017,90.863755 240,90.097018 l -0.86539,-0.08341"
         style="fill:none;stroke:#000000;stroke-width:0.2;stroke-linecap:butt;stroke-linejoin:miter;stroke-miterlimit:4;stroke-opacity:1;stroke-dasharray:none" />
    </g>
    <g
       id="g4024"
       transform="matrix(1.6736402,0,0,1.6736402,-117.44961,-28.536868)">
      <path
         d="m 221,102.36218 c 0,0.55229 -0.44772,1 -1,1 -0.55228,0 -1,-0.44771 -1,-1 0,-0.55228 0.44772,-1 1,-1 0.55228,0 1,0.44772 1,1 z"
         sodipodi:ry="1"
         sodipodi:rx="1"
         sodipodi:cy="102.36218"
         sodipodi:cx="220"
         id="path4009"
         style="fill:#000000;fill-opacity:1;stroke:none"
         sodipodi:type="arc" />
      <path
         d="m 222,102.36218 c 0,1.10457 -0.89543,2 -2,2 -1.10457,0 -2,-0.89543 -2,-2 0,-1.10457 0.89543,-2 2,-2 1.10457,0 2,0.89543 2,2 z"
         sodipodi:ry="2"
         sodipodi:rx="2"
         sodipodi:cy="102.36218"
         sodipodi:cx="220"
         id="path4014"
         style="fill:none;stroke:#000000;stroke-width:0.5;stroke-miterlimit:4;stroke-opacity:1;stroke-dasharray:none"
         sodipodi:type="arc" />
    </g>
    <g
       id="g4054"
       transform="matrix(1.6736402,0,0,2.0083694,-157.61698,-87.90508)">
      <path
         inkscape:connector-curvature="0"
         id="path4028"
         d="m 220,97.362183 0,4.999997"
         style="fill:none;stroke:#000000;stroke-width:0.5;stroke-linecap:butt;stroke-linejoin:miter;stroke-miterlimit:4;stroke-opacity:1;stroke-dasharray:none" />
      <path
         inkscape:connector-curvature="0"
         id="path4034"
         d="m 221,98.362183 -1,-1 -1,1"
         style="fill:none;stroke:#000000;stroke-width:0.5;stroke-linecap:butt;stroke-linejoin:miter;stroke-miterlimit:4;stroke-opacity:1;stroke-dasharray:none" />
      <path
         inkscape:connector-curvature="0"
         id="path4034-5"
         d="m 221,101.36218 -1,1 -1,-1"
         style="fill:none;stroke:#000000;stroke-width:0.5;stroke-linecap:butt;stroke-linejoin:miter;stroke-miterlimit:4;stroke-opacity:1;stroke-dasharray:none" />
    </g>
    <text
       xml:space="preserve"
       style="font-size:66.94561005px;font-style:normal;font-weight:normal;line-height:125%;letter-spacing:0px;word-spacing:0px;fill:#000000;fill-opacity:1;stroke:none;font-family:Sans"
       x="234.83536"
       y="-12.247223"
       id="text4069"
       sodipodi:linespacing="125%"
       transform="matrix(0.93643167,0.35085,-0.35085,0.93643167,0,0)"><tspan
         sodipodi:role="line"
         id="tspan4071"
         x="234.83536"
         y="-12.247223"
         style="font-size:12px">Laser</tspan></text>
    <text
       xml:space="preserve"
       style="font-size:66.94561005px;font-style:normal;font-weight:normal;line-height:125%;letter-spacing:0px;word-spacing:0px;fill:#000000;fill-opacity:1;stroke:none;font-family:Sans"
       x="365"
       y="47.362183"
       id="text4069-7"
       sodipodi:linespacing="125%"><tspan
         sodipodi:role="line"
         id="tspan4071-7"
         x="365"
         y="47.362183"
         style="font-size:16.73640251px"><tspan
           style="font-size:12px"
           id="tspan4128">Resonator</tspan></tspan></text>
    <path
       style="fill:none;stroke:#000000;stroke-width:1;stroke-linecap:butt;stroke-linejoin:miter;stroke-miterlimit:4;stroke-opacity:1;stroke-dasharray:none"
       d="M 376.27423,84.203187 393.01064,50.730384"
       id="path4099"
       inkscape:connector-curvature="0" />
    <path
       style="fill:none;stroke:#000000;stroke-width:1;stroke-linecap:butt;stroke-linejoin:miter;stroke-miterlimit:4;stroke-opacity:1;stroke-dasharray:none"
       d="m 396.35792,162.86427 15.06276,18.41004"
       id="path4101"
       inkscape:connector-curvature="0" />
    <text
       xml:space="preserve"
       style="font-size:66.94561005px;font-style:normal;font-weight:normal;line-height:125%;letter-spacing:0px;word-spacing:0px;fill:#000000;fill-opacity:1;stroke:none;font-family:Sans"
       x="372.71774"
       y="192.36218"
       id="text4069-7-8"
       sodipodi:linespacing="125%"><tspan
         sodipodi:role="line"
         id="tspan4071-7-2"
         x="372.71774"
         y="192.36218"
         style="font-size:12px">Glasplatte</tspan></text>
    <text
       xml:space="preserve"
       style="font-size:40px;font-style:normal;font-weight:normal;line-height:125%;letter-spacing:0px;word-spacing:0px;fill:#000000;fill-opacity:1;stroke:none;font-family:Sans"
       x="235"
       y="197.36218"
       id="text4124"
       sodipodi:linespacing="125%"><tspan
         sodipodi:role="line"
         id="tspan4126"
         x="235"
         y="197.36218"
         style="font-size:12px">I<tspan
   style="font-size:65.00091553%;baseline-shift:sub"
   id="tspan4130">2</tspan></tspan></text>
    <text
       xml:space="preserve"
       style="font-size:40px;font-style:normal;font-weight:normal;line-height:125%;letter-spacing:0px;word-spacing:0px;fill:#000000;fill-opacity:1;stroke:none;font-family:Sans"
       x="150"
       y="117.36218"
       id="text4124-0"
       sodipodi:linespacing="125%"><tspan
         sodipodi:role="line"
         id="tspan4126-0"
         x="150"
         y="117.36218"
         style="font-size:12px">I<tspan
   style="font-size:65.00091553%;baseline-shift:sub"
   id="tspan4156">1</tspan></tspan></text>
    <rect
       style="opacity:0.5;fill:#006680;fill-opacity:0.49803922;stroke:#006680;stroke-width:1;stroke-miterlimit:4;stroke-opacity:1;stroke-dasharray:none;stroke-dashoffset:0"
       id="rect3007"
       width="8.3682013"
       height="66.94561"
       x="393.01065"
       y="92.571388" />
    <rect
       style="opacity:0.5;fill:#006680;fill-opacity:0.49803922;stroke:#006680;stroke-width:1;stroke-miterlimit:4;stroke-opacity:1;stroke-dasharray:none;stroke-dashoffset:0"
       id="rect3007-3"
       width="3.3472803"
       height="26.778242"
       x="275.85583"
       y="99.265945" />
    <rect
       style="fill:#006582;fill-opacity:0.24705882;stroke:#006680;stroke-width:1;stroke-miterlimit:4;stroke-opacity:0.49803922;stroke-dasharray:none;stroke-dashoffset:0"
       id="rect3805"
       width="26.778242"
       height="26.778242"
       x="223.97298"
       y="99.265945" />
    <path
       style="fill:#006580;fill-opacity:0.62352941;stroke:#006580;stroke-width:1;stroke-linecap:butt;stroke-linejoin:miter;stroke-miterlimit:4;stroke-opacity:0.49803922;stroke-dasharray:none"
       d="M 250.75122,99.265949 223.97298,126.04419"
       id="path3807"
       inkscape:connector-curvature="0" />
    <text
       xml:space="preserve"
       style="font-size:40px;font-style:normal;font-weight:normal;line-height:125%;letter-spacing:0px;word-spacing:0px;fill:#000000;fill-opacity:1;stroke:none;font-family:Sans"
       x="270.0491"
       y="139.04672"
       id="text4124-8"
       sodipodi:linespacing="125%"><tspan
         sodipodi:role="line"
         id="tspan4126-5"
         x="270.0491"
         y="139.04672"
         style="font-size:12px">λ/4</tspan></text>
    <text
       xml:space="preserve"
       style="font-size:40px;font-style:normal;font-weight:normal;line-height:125%;letter-spacing:0px;word-spacing:0px;fill:#000000;fill-opacity:1;stroke:none;font-family:Sans"
       x="224.2085"
       y="96.620308"
       id="text4124-9"
       sodipodi:linespacing="125%"><tspan
         sodipodi:role="line"
         id="tspan4126-3"
         x="224.2085"
         y="96.620308"
         style="font-size:12px">PBS</tspan></text>
  </g>
</svg>
